<svg xmlns="http://www.w3.org/2000/svg" id="Calque_1" viewBox="0 0 1545.53 527.85"><defs><style>.cls-1{fill:#263168;}.cls-2{fill:#82b727;}</style></defs><g><g><path class="cls-1" d="M543.36,131.22v161.98c0,1.66,1.35,3.01,3.01,3.01h34.91c1.66,0,3.01-1.35,3.01-3.01V131.22c0-1.66-1.35-3.01-3.01-3.01h-34.91c-1.66,0-3.01,1.35-3.01,3.01Z"/><path class="cls-1" d="M652.96,173.94c0-10.51,7.4-15.54,17.17-15.32,10.1,.2,17.4,5.62,19.07,14.83,.27,1.49,1.45,2.64,2.96,2.64h38.32c1.77,0,3.23-1.55,3.04-3.32-3.11-29.98-27.3-46.93-62.65-46.93s-61.28,17.69-61.28,49.51c-.44,59.57,83.55,42.85,83.55,73.93,0,9.84-7.7,15.84-19.61,15.84-10.68,0-18.47-5.39-20.51-16.58-.27-1.46-1.45-2.58-2.93-2.58h-37.7c-1.75,0-3.2,1.52-3.04,3.26,2.83,31.86,30.43,48.69,65.37,48.69,39.22,0,61.28-23.46,61.28-51.73,0-56.17-83.03-43.07-83.03-72.23Z"/><path class="cls-1" d="M863.11,128.21c-1.66,0-3.01,1.35-3.01,3.01v97.49c0,19.91-10.29,31.38-29.68,31.38s-29.16-11.47-29.16-31.38v-97.49c0-1.66-1.35-3.01-3.01-3.01h-34.91c-1.66,0-3.01,1.35-3.01,3.01v97.27c0,46.4,30.42,69.42,69.42,69.42s71.27-23.02,71.27-69.42v-97.27c0-1.66-1.35-3.01-3.01-3.01h-34.91Z"/><path class="cls-1" d="M1057.77,182.31c0,27.75-18.95,53.58-61.72,53.58h-22.38c-1.66,0-3.01,1.35-3.01,3.01v54.3c0,1.66-1.35,3.01-3.01,3.01h-34.91c-1.66,0-3.01-1.35-3.01-3.01v-57.93c0-4.46,.71-8.9,2.26-13.08,2.47-6.67,6.06-12.91,11.28-18.19,6.44-6.59,14.36-11.47,22.79-15.17,5.85-2.52,11.03-6.51,16.58-9.69,1.18-.67,2.37-1.41,4.14-1.7-5.92,8.81-14.95,14.58-23.98,19.32-5.18,2.74-10.21,5.62-14.43,9.47-4.96,4.51-8.81,9.4-12.58,15.62,14.43-2.22,26.2-5.33,38.04-11.62,15.99-8.44,29.6-21.46,33.38-39.74l.16-.79c.9-4.5,1.24-9.05,1.21-13.64-.03-4.73,1-11.27-1.67-15.92-8.21,13.84-21.24,21.91-35.82,27.16-13.84,4.96-25.68,13.91-33.6,26.42-3.26,5.25-5.85,10.95-7.77,16.95v-79.43c0-1.66,1.35-3.01,3.01-3.01h63.3c41.15,0,61.72,23.24,61.72,54.1Z"/><path class="cls-1" d="M1188.4,131.22v91.07c0,2.99-3.88,4.15-5.52,1.65l-62.04-94.37c-.56-.85-1.5-1.36-2.51-1.36h-36.29c-1.66,0-3.01,1.35-3.01,3.01v161.98c0,1.66,1.35,3.01,3.01,3.01h34.91c1.66,0,3.01-1.35,3.01-3.01v-90.59c0-2.98,3.87-4.15,5.52-1.66l62.05,93.91c.56,.84,1.5,1.35,2.51,1.35h36.3c1.66,0,3.01-1.35,3.01-3.01V131.22c0-1.66-1.35-3.01-3.01-3.01h-34.91c-1.66,0-3.01,1.35-3.01,3.01Z"/><path class="cls-1" d="M1353.98,128.21h-43.14c-1.27,0-2.4,.79-2.83,1.98l-58.58,161.98c-.71,1.96,.74,4.03,2.83,4.03h36.4c1.29,0,2.44-.82,2.85-2.05l8.61-25.58c.41-1.22,1.56-2.05,2.85-2.05h58.37c1.29,0,2.43,.82,2.85,2.04l8.68,25.59c.41,1.22,1.56,2.04,2.85,2.04h36.85c2.09,0,3.54-2.07,2.83-4.03l-58.58-161.98c-.43-1.19-1.56-1.98-2.83-1.98Zm-41.04,102.75l16.41-49.06c.91-2.73,4.78-2.74,5.7,0l16.59,49.06c.66,1.95-.79,3.97-2.85,3.97h-33c-2.05,0-3.5-2.01-2.85-3.96Z"/><path class="cls-1" d="M1415.58,131.22v26.77c0,1.66,1.35,3.01,3.01,3.01h38.54c1.66,0,3.01,1.35,3.01,3.01v129.19c0,1.66,1.35,3.01,3.01,3.01h34.91c1.66,0,3.01-1.35,3.01-3.01V164c0-1.66,1.35-3.01,3.01-3.01h38.46c1.66,0,3.01-1.35,3.01-3.01v-26.77c0-1.66-1.35-3.01-3.01-3.01h-123.94c-1.66,0-3.01,1.35-3.01,3.01Z"/></g><g><path class="cls-1" d="M549.21,341.32v45.26h-5.85v-45.26h5.85Z"/><path class="cls-1" d="M574.27,356.5c-5.78,0-10.58,4.8-10.58,11.41v18.66h-5.57v-34.81h4.73l.77,6.4c1.81-4.32,5.92-7.24,11.48-7.24,7.87,0,13.51,6.05,13.51,14.48v21.16h-5.57v-20.74c0-5.44-3.55-9.33-8.77-9.33Z"/><path class="cls-1" d="M608.53,382.13c3.9,0,6.82-2.09,6.82-5.01,0-7.94-20.61-4.53-20.61-16.72,0-6.13,5.5-9.47,12.39-9.47s12.46,3.97,13.23,9.47l-5.85,1.54c-.14-3.41-3.34-5.85-7.38-5.85-3.48,0-6.4,1.81-6.4,4.6,0,7.52,20.74,4.24,20.74,16.43,0,6.13-5.43,10.31-13.37,10.31s-14.55-4.67-15.04-11.14l6.13-1.67c.28,4.38,4.53,7.52,9.33,7.52Z"/><path class="cls-1" d="M623.71,351.77h2.23c2.16,0,3.76-1.81,3.76-4.32v-4.59h5.29v8.91h7.66v5.43h-7.66v20.19c0,2.57,1.88,4.31,4.73,4.31,.98,0,2.09-.13,2.92-.42l.14,5.57c-1.11,.35-2.58,.56-3.9,.56-5.64,0-9.47-3.55-9.47-8.91v-21.31h-5.71v-5.43Z"/><path class="cls-1" d="M652.39,338.4c2.51,0,4.32,1.88,4.32,4.46s-1.81,4.46-4.32,4.46-4.32-1.88-4.32-4.46,1.81-4.46,4.32-4.46Zm2.79,13.37v34.81h-5.57v-34.81h5.57Z"/><path class="cls-1" d="M660.61,351.77h2.23c2.16,0,3.76-1.81,3.76-4.32v-4.59h5.29v8.91h7.66v5.43h-7.66v20.19c0,2.57,1.88,4.31,4.73,4.31,.98,0,2.09-.13,2.92-.42l.14,5.57c-1.11,.35-2.58,.56-3.9,.56-5.64,0-9.47-3.55-9.47-8.91v-21.31h-5.71v-5.43Z"/><path class="cls-1" d="M710.04,386.58l-.7-5.92c-1.53,4.04-5.99,6.76-11.28,6.76-7.73,0-13.37-6.06-13.37-14.35v-21.3h5.57v20.74c0,5.3,3.41,9.19,8.64,9.19,5.5,0,10.31-4.24,10.31-10.86v-19.07h5.57v27.84l.14,6.97h-4.88Z"/><path class="cls-1" d="M719.51,351.77h2.23c2.16,0,3.76-1.81,3.76-4.32v-4.59h5.29v8.91h7.66v5.43h-7.66v20.19c0,2.57,1.88,4.31,4.73,4.31,.98,0,2.09-.13,2.92-.42l.14,5.57c-1.11,.35-2.58,.56-3.9,.56-5.64,0-9.47-3.55-9.47-8.91v-21.31h-5.71v-5.43Z"/><path class="cls-1" d="M777.16,381.71c5.57,0,9.89-3.06,9.89-7.38,0-10.8-26.46-7.04-26.46-21.73,0-7.38,6.68-12.12,15.18-12.12s15.18,4.88,16.01,12.12l-6.4,1.81c-.56-4.73-4.04-8.36-9.61-8.36-4.74,0-8.91,2.51-8.91,6.27,0,9.68,26.6,6.62,26.6,22,0,7.72-6.62,13.09-16.44,13.09s-17.82-6.13-18.38-15.05l6.4-1.67c.28,6.41,5.22,11,12.12,11Z"/><path class="cls-1" d="M824.92,386.58l-.7-5.92c-1.53,4.04-5.99,6.76-11.28,6.76-7.73,0-13.37-6.06-13.37-14.35v-21.3h5.57v20.74c0,5.3,3.41,9.19,8.64,9.19,5.5,0,10.31-4.24,10.31-10.86v-19.07h5.57v27.84l.14,6.97h-4.88Z"/><path class="cls-1" d="M843.58,380.73v19.77h-5.57v-48.73h4.73l.7,5.85c2.65-4.18,6.96-6.69,12.39-6.69,9.33,0,16.57,7.52,16.57,18.1s-7.59,18.39-16.57,18.39c-5.22,0-9.54-2.51-12.26-6.69Zm11.42,1.12c6.68,0,11.56-5.3,11.56-12.67s-4.88-12.81-11.56-12.81-11.56,5.37-11.56,12.81,4.87,12.67,11.56,12.67Z"/><path class="cls-1" d="M876.86,369.31c0-10.65,6.96-18.38,16.71-18.38s16.44,8.07,16.44,19.22c0,.28,0,.63-.07,1.18h-26.95c.84,6.2,5.15,10.52,10.86,10.52,4.59,0,8.77-2.93,9.61-6.97l6.26,1.95c-1.53,6.13-8.08,10.59-15.87,10.59-10.03,0-16.99-7.59-16.99-18.11Zm27.16-3.41c-1.12-6.13-5.71-9.54-10.72-9.54s-9.12,3.83-10.17,9.54h20.89Zm-8.91-28.34h8.22l-6.83,8.64h-5.43l4.04-8.64Z"/><path class="cls-1" d="M916.41,351.77h4.73l.7,5.78c1.67-4.04,5.01-6.62,9.05-6.62,1.39,0,2.71,.35,3.9,.84l-.28,6.54c-1.39-.83-3.06-1.11-4.18-1.11-4.87,0-8.35,3.89-8.35,9.33v20.05h-5.57v-34.81Z"/><path class="cls-1" d="M943.28,338.4c2.51,0,4.32,1.88,4.32,4.46s-1.81,4.46-4.32,4.46-4.32-1.88-4.32-4.46,1.81-4.46,4.32-4.46Zm2.79,13.37v34.81h-5.57v-34.81h5.57Z"/><path class="cls-1" d="M953.17,369.31c0-10.65,6.96-18.38,16.71-18.38s16.44,8.07,16.44,19.22c0,.28,0,.63-.07,1.18h-26.95c.84,6.2,5.15,10.52,10.86,10.52,4.59,0,8.77-2.93,9.61-6.97l6.26,1.95c-1.53,6.13-8.08,10.59-15.87,10.59-10.03,0-16.99-7.59-16.99-18.11Zm27.16-3.41c-1.12-6.13-5.71-9.54-10.72-9.54s-9.12,3.83-10.17,9.54h20.89Z"/><path class="cls-1" d="M1017.5,386.58l-.7-5.92c-1.53,4.04-5.99,6.76-11.28,6.76-7.73,0-13.37-6.06-13.37-14.35v-21.3h5.57v20.74c0,5.3,3.41,9.19,8.64,9.19,5.5,0,10.31-4.24,10.31-10.86v-19.07h5.57v27.84l.14,6.97h-4.88Z"/><path class="cls-1" d="M1030.59,351.77h4.73l.7,5.78c1.67-4.04,5.01-6.62,9.05-6.62,1.39,0,2.71,.35,3.9,.84l-.28,6.54c-1.39-.83-3.06-1.11-4.18-1.11-4.87,0-8.35,3.89-8.35,9.33v20.05h-5.57v-34.81Z"/><path class="cls-1" d="M1067.35,369.03c0-10.23,7.24-18.1,16.78-18.1,5.15,0,9.4,2.3,12.18,6.2v-17.9h5.57v40.38l.14,6.97h-4.74l-.7-5.64c-2.64,4.11-6.96,6.48-12.18,6.48-9.6,0-17.06-8.08-17.06-18.39Zm17.61,12.81c6.76,0,11.49-5.22,11.49-12.67s-4.94-12.81-11.77-12.81-11.49,5.37-11.49,12.81,4.94,12.67,11.77,12.67Z"/><path class="cls-1" d="M1108.84,369.31c0-10.65,6.96-18.38,16.71-18.38s16.44,8.07,16.44,19.22c0,.28,0,.63-.07,1.18h-26.95c.84,6.2,5.15,10.52,10.86,10.52,4.59,0,8.77-2.93,9.61-6.97l6.26,1.95c-1.53,6.13-8.08,10.59-15.87,10.59-10.03,0-16.99-7.59-16.99-18.11Zm27.16-3.41c-1.12-6.13-5.71-9.54-10.72-9.54s-9.12,3.83-10.17,9.54h20.89Z"/><path class="cls-1" d="M1164.26,341.32h7.38l23.81,36.07v-36.07h5.85v45.26h-6.68l-24.51-36.62v36.62h-5.85v-45.26Z"/><path class="cls-1" d="M1217.74,367.64l10.72-1.95c1.32-.21,2.23-.97,2.23-1.95v-.28c0-4.38-3.2-7.52-7.66-7.52s-7.66,3.48-7.8,8.36l-6.13-.97c.7-7.17,6.34-12.39,13.79-12.39s13.37,4.95,13.37,12.53v16.15l.14,6.97h-4.59l-.91-5.71c-2.02,4.04-6.2,6.55-11.77,6.55-6.68,0-11.14-4.18-11.14-10.03,0-5.02,3.34-8.56,9.75-9.75Zm10.58,2.79l-9.19,1.67c-3.34,.63-5.01,2.71-5.01,5.3,0,2.71,2.23,4.59,6.13,4.59,5.78,0,10.44-4.31,10.44-9.89v-2.22c-.49,.21-1.39,.35-2.37,.55Z"/><path class="cls-1" d="M1239.88,351.77h2.23c2.16,0,3.76-1.81,3.76-4.32v-4.59h5.29v8.91h7.66v5.43h-7.66v20.19c0,2.57,1.88,4.31,4.73,4.31,.98,0,2.09-.13,2.92-.42l.14,5.57c-1.11,.35-2.58,.56-3.9,.56-5.64,0-9.47-3.55-9.47-8.91v-21.31h-5.71v-5.43Z"/><path class="cls-1" d="M1289.31,386.58l-.7-5.92c-1.53,4.04-5.99,6.76-11.28,6.76-7.73,0-13.37-6.06-13.37-14.35v-21.3h5.57v20.74c0,5.3,3.41,9.19,8.64,9.19,5.5,0,10.31-4.24,10.31-10.86v-19.07h5.57v27.84l.14,6.97h-4.88Z"/><path class="cls-1" d="M1302.4,351.77h4.73l.7,5.78c1.67-4.04,5.01-6.62,9.05-6.62,1.39,0,2.71,.35,3.9,.84l-.28,6.54c-1.39-.83-3.06-1.11-4.18-1.11-4.87,0-8.35,3.89-8.35,9.33v20.05h-5.57v-34.81Z"/><path class="cls-1" d="M1323.29,369.18c0-10.58,7.31-18.24,17.4-18.24s17.41,7.66,17.41,18.24-7.31,18.24-17.41,18.24-17.4-7.66-17.4-18.24Zm17.4,12.67c6.68,0,11.56-5.3,11.56-12.67s-4.88-12.81-11.56-12.81-11.56,5.37-11.56,12.81,4.87,12.67,11.56,12.67Z"/><path class="cls-1" d="M1370.07,380.73v19.77h-5.57v-48.73h4.73l.7,5.85c2.65-4.18,6.96-6.69,12.39-6.69,9.33,0,16.57,7.52,16.57,18.1s-7.59,18.39-16.57,18.39c-5.22,0-9.54-2.51-12.26-6.69Zm11.42,1.12c6.68,0,11.56-5.3,11.56-12.67s-4.88-12.81-11.56-12.81-11.56,5.37-11.56,12.81,4.87,12.67,11.56,12.67Z"/><path class="cls-1" d="M1412.83,367.64l10.72-1.95c1.32-.21,2.23-.97,2.23-1.95v-.28c0-4.38-3.2-7.52-7.66-7.52s-7.66,3.48-7.8,8.36l-6.13-.97c.7-7.17,6.34-12.39,13.79-12.39s13.37,4.95,13.37,12.53v16.15l.14,6.97h-4.59l-.91-5.71c-2.02,4.04-6.2,6.55-11.77,6.55-6.68,0-11.14-4.18-11.14-10.03,0-5.02,3.34-8.56,9.75-9.75Zm10.58,2.79l-9.19,1.67c-3.34,.63-5.01,2.71-5.01,5.3,0,2.71,2.23,4.59,6.13,4.59,5.78,0,10.44-4.31,10.44-9.89v-2.22c-.49,.21-1.39,.35-2.37,.55Z"/><path class="cls-1" d="M1434.96,351.77h2.23c2.16,0,3.76-1.81,3.76-4.32v-4.59h5.29v8.91h7.66v5.43h-7.66v20.19c0,2.57,1.88,4.31,4.73,4.31,.98,0,2.09-.13,2.92-.42l.14,5.57c-1.11,.35-2.58,.56-3.9,.56-5.64,0-9.47-3.55-9.47-8.91v-21.31h-5.71v-5.43Z"/><path class="cls-1" d="M1476.88,356.5c-5.78,0-10.58,4.8-10.58,11.41v18.66h-5.57v-47.35h5.57v18.31c1.67-4.11,6.13-6.62,11.42-6.62,7.87,0,13.51,6.05,13.51,14.48v21.16h-5.57v-20.74c0-5.44-3.55-9.33-8.77-9.33Z"/><path class="cls-1" d="M1502.5,338.4c2.51,0,4.32,1.88,4.32,4.46s-1.81,4.46-4.32,4.46-4.31-1.88-4.31-4.46,1.81-4.46,4.31-4.46Zm2.79,13.37v34.81h-5.57v-34.81h5.57Z"/><path class="cls-1" d="M1512.39,369.31c0-10.65,6.96-18.38,16.71-18.38s16.43,8.07,16.43,19.22c0,.28,0,.63-.07,1.18h-26.95c.84,6.2,5.15,10.52,10.86,10.52,4.59,0,8.77-2.93,9.61-6.97l6.26,1.95c-1.53,6.13-8.08,10.59-15.87,10.59-10.03,0-16.99-7.59-16.99-18.11Zm27.16-3.41c-1.12-6.13-5.71-9.54-10.72-9.54s-9.12,3.83-10.17,9.54h20.89Z"/></g></g><g><g><path class="cls-1" d="M264.87,249.21c.27,.15,.6-.04,.62-.35,1.1-18.97,1.55-37.98,3.12-56.91,2.34-28.42,8.55-57.65,29.31-78.71,11.44-11.61,25.52-20.31,40.39-26.82,10.35-4.53,19.62-11.53,29.45-17.27,2.02-1.18,4.21-2.43,7.38-3.03-10.5,15.66-26.51,25.93-42.59,34.35-9.14,4.79-18.14,9.92-25.61,16.73-8.83,8.05-15.63,16.76-22.23,27.74,25.53-3.98,46.45-9.45,67.44-20.55,28.3-14.97,52.49-38.19,59.18-70.57,.13-.64,.26-1.29,.38-1.94,1.65-8.99,1.9-18.17,2.14-27.3,.21-7.93,1.03-17.47-3.01-24.57-14.67,24.59-37.69,38.92-63.56,48.16-24.6,8.78-45.62,24.74-59.56,46.94-18.79,29.93-23.32,67.74-25.1,102.33-.79,15.36-1.19,30.54-1.26,46.08-.01,2.4,1.41,4.57,3.52,5.7Z"/><path class="cls-2" d="M239.21,453.3c2.34-11.61,10.63-21.03,19.07-29.34,15.49-15.25,32.61-28.83,50.97-40.47,28-17.76,59.99-32.02,78.84-59.3,11.12-16.09,16.64-35.56,18.3-55.05,1.66-19.49-.37-39.1-3.28-58.44-8.72,20.25-24.51,36.66-41.6,50.59-17.09,13.93-35.77,25.83-52.65,40.02-23.72,19.94-43.71,44.3-58.63,71.46,.67-1.22,.1-4.6,.12-6.03,.04-2.38,.08-4.75,.11-7.13,.06-4.58,.09-9.15,.08-13.73,0-9.15-.16-18.31-.52-27.46-.71-18.23-2.25-36.45-5.16-54.47-5.52-34.16-15.36-68.8-32.92-98.81-1.14-1.94-2.31-3.87-3.51-5.77-6-9.47-13.22-18.18-19.68-27.35-7.09-10.07-13.83-20.41-19.66-31.28-10.13-18.91-17.5-39.66-18.48-61.09-8.07,17.13-15.07,34.75-21.11,52.7-5.13,15.24-9.61,31.21-7.86,47.2,2.1,19.18,13.04,36.39,26.2,50.51,13.15,14.12,28.66,25.83,42.61,39.16,9.2,8.79,17.84,18.48,23.2,30.02-.86-18.08-9.13-35.03-19.18-50.08-10.05-15.05-22.02-28.78-31.66-44.09-9.65-15.31-17.03-32.81-16.45-50.9,.38,7.95,3.86,15.41,7.73,22.37,14.89,26.81,36.03,49.32,53.89,74.07,7.81,10.82,15.03,22.12,20.66,34.24,6.29,13.54,9.43,28.34,11.59,43.07,5.33,36.4,4.77,74.4,1.45,111-.37,4.14-.8,8.27-1.26,12.4,4.04-1.46,5.68-2.12,6.28-5.02,7.62-36.85,57.36-79.9,102.5-97.1-31.41,22.38-57.28,51.64-80.84,82.17-14.18,18.37-28.16,38.76-29.16,61.94Z"/></g><path class="cls-1" d="M337.48,503.73c-42.66,30.42-102.26,28.69-150.73,16.73-20.28-5.01-40.03-12.07-59.1-20.56-32.35-14.41-63.3-33.28-87.06-59.54-15.3-16.91-27.38-37-34.05-58.86-11.52-37.78-10.53-82.19,25.22-106.24,26.69-17.95,61.68-22.32,93.07-23.28,12.32-.38,24.66-.11,36.97,.62-24.17,3.12-47.4,5.05-70.53,13.89-16.55,6.32-32.75,15.44-44.18,29.27-14.66,17.75-17.17,39.17-12.54,61.1,5.04,23.88,15.07,46.72,29.35,66.53-2.92-4.05-3.6-12.22-4.56-16.97-1.31-6.49-2.19-13.08-2.42-19.7-.45-13.2,1.75-26.53,7.76-38.38,21.94-43.25,80.25-52.01,123.64-43.61,.48,.09,.45,.78-.03,.84-16.85,1.91-107.05,14.88-101.77,72.94,5.82,64.02,89.75,116.71,89.75,116.71,0,0,63,42.62,161.19,8.53Z"/></g></svg>